<svg width="59" height="81" viewBox="0 0 59 81" fill="none" xmlns="http://www.w3.org/2000/svg">
<path d="M43.6667 40.4998C52.0746 44.6896 57.8333 53.4269 57.8333 65.2915V79.4582H1.16667V65.2915C1.16667 53.4128 6.94313 44.6613 15.3333 40.4998M50.75 22.7915C50.75 25.5821 50.2004 28.3454 49.1324 30.9235C48.0645 33.5017 46.4993 35.8443 44.526 37.8175C42.5528 39.7908 40.2102 41.356 37.632 42.4239C35.0539 43.4919 32.2906 44.0415 29.5 44.0415C23.8642 44.0415 18.4591 41.8027 14.474 37.8175C10.4888 33.8324 8.25 28.4274 8.25 22.7915M50.75 22.7915C50.75 20.0009 50.2004 17.2376 49.1324 14.6595C48.0645 12.0813 46.4993 9.73873 44.526 7.76548C42.5528 5.79224 40.2102 4.22698 37.632 3.15906C35.0539 2.09115 32.2906 1.5415 29.5 1.5415C23.8642 1.5415 18.4591 3.78034 14.474 7.76548C10.4888 11.7506 8.25 17.1557 8.25 22.7915M50.75 22.7915C45.4375 22.7915 40.125 24.0665 33.0417 15.7082C25.9583 24.0665 17.1042 26.3332 8.25 22.7915M11.7917 44.0415L29.5885 62.66L47.2083 44.0415M29.5 61.7498V79.4582" stroke="#E9E149" stroke-width="2"/>
</svg>
