<svg width="85" height="85" viewBox="0 0 85 85" fill="none" xmlns="http://www.w3.org/2000/svg">
<path d="M23.1625 17.7083C23.375 20.8604 23.9062 23.9417 24.7562 26.8813L20.5063 31.1313C19.0542 26.8813 18.1333 22.3833 17.8146 17.7083H23.1625ZM58.0833 60.2792C61.0938 61.1292 64.175 61.6604 67.2917 61.8729V67.15C62.6167 66.8312 58.1188 65.9104 53.8333 64.4937L58.0833 60.2792ZM26.5625 10.625H14.1667C12.2188 10.625 10.625 12.2188 10.625 14.1667C10.625 47.4229 37.5771 74.375 70.8333 74.375C72.7812 74.375 74.375 72.7812 74.375 70.8333V58.4729C74.375 56.525 72.7812 54.9313 70.8333 54.9313C66.4417 54.9313 62.1563 54.2229 58.1896 52.9125C57.8389 52.7815 57.4657 52.7213 57.0917 52.7354C56.1708 52.7354 55.2854 53.0896 54.5771 53.7625L46.7854 61.5542C36.7464 56.4199 28.5801 48.2536 23.4458 38.2146L31.2375 30.4229C32.2292 29.4313 32.5125 28.05 32.1229 26.8104C30.7818 22.73 30.1003 18.4618 30.1042 14.1667C30.1042 12.2188 28.5104 10.625 26.5625 10.625Z" fill="#10E85B" fill-opacity="0.9"/>
</svg>
