<svg width="85" height="85" viewBox="0 0 85 85" fill="none" xmlns="http://www.w3.org/2000/svg">
<path d="M40.7292 7.0835C35.563 7.0835 30.6084 9.13576 26.9553 12.7888C23.3023 16.4419 21.25 21.3965 21.25 26.5627C21.25 31.7289 23.3023 36.6835 26.9553 40.3365C30.6084 43.9896 35.563 46.0418 40.7292 46.0418C45.8954 46.0418 50.85 43.9896 54.503 40.3365C58.1561 36.6835 60.2083 31.7289 60.2083 26.5627C60.2083 21.3965 58.1561 16.4419 54.503 12.7888C50.85 9.13576 45.8954 7.0835 40.7292 7.0835ZM63.75 44.271C61.192 44.271 58.659 44.7748 56.2956 45.7538C53.9323 46.7327 51.785 48.1675 49.9761 49.9763C48.1673 51.7851 46.7325 53.9325 45.7536 56.2958C44.7747 58.6591 44.2708 61.1921 44.2708 63.7502C44.2708 66.3082 44.7747 68.8412 45.7536 71.2045C46.7325 73.5678 48.1673 75.7152 49.9761 77.524C51.785 79.3328 53.9323 80.7676 56.2956 81.7466C58.659 82.7255 61.192 83.2293 63.75 83.2293C68.9162 83.2293 73.8708 81.1771 77.5239 77.524C81.1769 73.871 83.2292 68.9164 83.2292 63.7502C83.2292 58.584 81.1769 53.6294 77.5239 49.9763C73.8708 46.3233 68.9162 44.271 63.75 44.271ZM67.2917 72.2997L60.2083 65.2164V55.7885H67.2917V62.2839L72.2996 67.2918L67.2917 72.2997Z" fill="#E9E149"/>
<path d="M43.4031 49.5835C40.5029 53.7377 38.951 58.6837 38.9583 63.7502C38.9583 69.0166 40.6017 73.9006 43.4031 77.9168H7.08334V70.8335C7.08334 65.1976 9.32218 59.7926 13.3073 55.8075C17.2925 51.8223 22.6975 49.5835 28.3333 49.5835H43.4031Z" fill="#E9E149"/>
</svg>
